{"title":"A Few Best Men 2012 DVDSCR XViD DTRG","uid":7139828,"size":803507362,"categoryP":"video","categoryS":"movies","magnet":"?xt=urn:btih:5b76ec9817636cb61a61330a65cbe07d17c771b9&amp;dn=+A+Few+Best+Men+2012+DVDSCR+XViD+DTRG&amp;tr=udp%3A%2F%2Ftracker.openbittorrent.com%3A80&amp;tr=udp%3A%2F%2Fopen.demonii.com%3A1337&amp;tr=udp%3A%2F%2Ftracker.coppersurfer.tk%3A6969&amp;tr=udp%3A%2F%2Fexodus.desync.com%3A6969","seeders":1,"leechers":0,"uploader":"BLOVES","files":3,"time":1332964611,"description":"Format : AVI\nFormat/Info : Audio Video Interleave\nFile size : 760 MiB\nDuration : 1h 36mn\nOverall bit rate : 1 100 Kbps\nWriting application : VirtualDubMod 1.5.10.2 (build 2540/release)\nWriting library : VirtualDubMod build 2540/release\n\nVideo\nID : 0\nFormat : MPEG-4 Visual\nFormat profile : Advanced Simple@L5\nFormat settings, BVOP : 2\nFormat settings, QPel : No\nFormat settings, GMC : No warppoints\nFormat settings, Matrix : Default (H.263)\nMuxing mode : Packed bitstream\nCodec ID : XVID\nCodec ID/Hint : XviD\nDuration : 1h 36mn\nBit rate : 898 Kbps\nWidth : 720 pixels\nHeight : 268 pixels\nDisplay aspect ratio : 2.687\nFrame rate : 25.000 fps\nColor space : YUV\nChroma subsampling : 4:2:0\nBit depth : 8 bits\nScan type : Progressive\nCompression mode : Lossy\nBits/(Pixel*Frame) : 0.186\nStream size : 620 MiB (82%)\nWriting library : XviD 64\n\nAudio\nID : 1\nFormat : AC-3\nFormat/Info : Audio Coding 3\nMode extension : CM (complete main)\nCodec ID : 2000\nDuration : 1h 36mn\nBit rate mode : Constant\nBit rate : 192 Kbps\nChannel(s) : 2 channels\nChannel positions : Front: L R\nSampling rate : 48.0 KHz\nBit depth : 16 bits\nCompression mode : Lossy\nStream size : 133 MiB (17%)\nAlignment : Split accross interleaves\nInterleave, duration : 40 ms (1.00 video frame)\nInterleave, preload duration : 500 ms\n\n\n\n\n\n\n &lt;a href=&quot;\nhttp://www.imdb.com/title/tt1640711/&quot; rel=&quot;nofollow&quot; target=&quot;_NEW&quot;&gt;\nhttp://www.imdb.com/title/tt1640711/&lt;/a&gt;\n\n\n\n\n\nRatings: 6.7/10 from 525 users \nReviews: 11 user | 17 critic\n\nA comedy about a groom and his three best men who travel to the Australian outback for a wedding.\n\nDirector:\nStephan Elliott\nWriter:\nDean Craig\nStars:\nOlivia Newton-John, Rebel Wilson and Xavier Samuel \n\n\n\n\n\n\n\n\nSource Used\n\n\n\nKiNGDOM X264 .....thanks\n\n\n\nCropped away the property of /watermark that was at bottom of screen..........no point leaving it couldnt see behind it anyway \n\n\n\n\n\n\nEnjoy","torrent":{"xt":"urn:btih:5b76ec9817636cb61a61330a65cbe07d17c771b9","amp;dn":"+A+Few+Best+Men+2012+DVDSCR+XViD+DTRG","amp;tr":["udp%3A%2F%2Ftracker.openbittorrent.com%3A80","udp%3A%2F%2Fopen.demonii.com%3A1337","udp%3A%2F%2Ftracker.coppersurfer.tk%3A6969","udp%3A%2F%2Fexodus.desync.com%3A6969"],"infoHash":"5b76ec9817636cb61a61330a65cbe07d17c771b9","infoHashBuffer":{"type":"Buffer","data":[91,118,236,152,23,99,108,182,26,97,51,10,101,203,224,125,23,199,113,185]},"announce":[],"urlList":[]}}